STARTFONT 2.1
COMMENT METAFONT output 1995.04.13:1748
COMMENT fontid=MSBM V2.2
COMMENT codingscheme=TeX math symbols
COMMENT fontfacebyte
COMMENT jobname=msbm10
COMMENT mag=0.45
COMMENT mode=cx
COMMENT pixels_per_inch=300
COMMENT blacker=0
COMMENT fillin=0.2
COMMENT o_correction=0.6
COMMENT Checksum 88b616c8
COMMENT 
COMMENT This file is made by pktobdf using the above specified pk file.
COMMENT 
FONT -metafont-msbm10-medium-r-normal--19-180-75-75-P-117-MetaFont-FONTSPECIFIC
SIZE 19 75 75
FONTBOUNDINGBOX 44 26 -1 -9
STARTPROPERTIES 21
FONT_ASCENT 15
FONT_DESCENT 8
FOUNDRY "metafont"
FAMILY_NAME "msbm10"
WEIGHT_NAME "medium"
SLANT "r"
SETWIDTH_NAME "normal"
ADD_STYLE_NAME ""
PIXEL_SIZE 19
POINT_SIZE 180
RESOLUTOIN_X 75
RESOLUTOIN_Y 75
SPACING "P"
AVERAGE_WIDTH 117
CHARSET_REGISTRY "MetaFont"
CHARSET_ENCODING "FONTSPECIFIC"
AVG_CAPITAL_WIDTH 26
AVG_LOWERCASE_WIDTH 17
COPYRIGHT "MetaFont (public domain)"
DEVICE_FONT_NAME "msbm10"
FULLNAME "msbm10"
ENDPROPERTIES
CHARS 123
STARTCHAR Gamma
ENCODING 0
SWIDTH 797 0
DWIDTH 15 0
BBX 10 21 2 -7
BITMAP
0040
0180
0600
0800
3000
c000
c000
3000
0800
0600
0180
0040
0000
0400
ffc0
0400
0400
0400
ffc0
0400
0400
ENDCHAR
STARTCHAR Delta
ENCODING 1
SWIDTH 797 0
DWIDTH 15 0
BBX 10 21 2 -7
BITMAP
8000
6000
1800
0400
0300
00c0
00c0
0300
0400
1800
6000
8000
0000
0400
ffc0
0400
0400
0400
ffc0
0400
0400
ENDCHAR
STARTCHAR Theta
ENCODING 2
SWIDTH 797 0
DWIDTH 15 0
BBX 10 21 2 -6
BITMAP
0080
0080
0080
0140
0180
0200
0e00
3200
4400
c400
3800
0800
0e00
1100
10c0
1000
2000
2000
ffc0
4000
4000
ENDCHAR
STARTCHAR Lamdba
ENCODING 3
SWIDTH 797 0
DWIDTH 15 0
BBX 10 21 2 -6
BITMAP
0080
0080
0080
8100
6100
1200
0e00
0300
0480
04c0
0b00
0c00
1800
3000
d000
1000
2000
2000
ffc0
4000
4000
ENDCHAR
STARTCHAR Xi
ENCODING 4
SWIDTH 797 0
DWIDTH 15 0
BBX 10 17 2 -4
BITMAP
0080
0080
0100
01c0
0300
0600
1c00
6400
8800
6800
1800
1400
1300
20c0
2000
4000
4000
ENDCHAR
STARTCHAR Pi
ENCODING 5
SWIDTH 797 0
DWIDTH 15 0
BBX 10 17 2 -4
BITMAP
0080
0080
0100
c100
3200
0a00
0600
0580
0840
0980
0e00
1800
3000
e000
2000
4000
4000
ENDCHAR
STARTCHAR Sigma
ENCODING 6
SWIDTH 797 0
DWIDTH 15 0
BBX 10 17 2 -4
BITMAP
0080
0080
0100
0140
0240
0240
0480
0500
0e00
f800
0e00
1100
1080
2040
2040
4000
4000
ENDCHAR
STARTCHAR Upsilon
ENCODING 7
SWIDTH 797 0
DWIDTH 15 0
BBX 10 17 2 -4
BITMAP
0080
0080
0100
8100
8200
8200
4400
2400
1c00
0bc0
1c00
3000
5000
a000
a000
4000
4000
ENDCHAR
STARTCHAR Phi
ENCODING 8
SWIDTH 797 0
DWIDTH 15 0
BBX 10 21 2 -7
BITMAP
0040
0180
0600
0800
3000
c000
c000
3000
0800
0600
0180
0040
0000
0100
ffc0
0400
0400
0800
ffc0
2000
2000
ENDCHAR
STARTCHAR Psi
ENCODING 9
SWIDTH 797 0
DWIDTH 15 0
BBX 10 21 2 -7
BITMAP
8000
6000
1800
0400
0300
00c0
00c0
0300
0400
1800
6000
8000
0000
0100
ffc0
0400
0400
0800
ffc0
2000
2000
ENDCHAR
STARTCHAR Omega
ENCODING 10
SWIDTH 797 0
DWIDTH 15 0
BBX 10 21 2 -6
BITMAP
0080
0080
0080
0140
0180
0200
0e00
3200
4400
c400
3800
0800
0e00
d100
30c0
1800
2600
2100
40c0
4000
4000
ENDCHAR
STARTCHAR arrowup
ENCODING 11
SWIDTH 797 0
DWIDTH 15 0
BBX 10 21 2 -6
BITMAP
0080
0080
0080
8100
6100
1200
0e00
0300
0480
04c0
0b00
0c00
1800
30c0
d300
1400
3800
2000
c000
4000
4000
ENDCHAR
STARTCHAR arrowdown
ENCODING 12
SWIDTH 797 0
DWIDTH 15 0
BBX 10 18 2 -6
BITMAP
0040
0180
0600
0800
3000
c000
c000
3000
0800
0600
0180
0040
0000
0000
0200
ffc0
0800
1000
ENDCHAR
STARTCHAR quotesingle
ENCODING 13
SWIDTH 797 0
DWIDTH 15 0
BBX 10 18 2 -6
BITMAP
8000
6000
1800
0400
0300
00c0
00c0
0300
0400
1800
6000
8000
0000
0000
0200
ffc0
0800
1000
ENDCHAR
STARTCHAR exclamdown
ENCODING 14
SWIDTH 797 0
DWIDTH 15 0
BBX 10 21 2 -6
BITMAP
0080
0080
0080
0140
0140
0240
0280
0300
0e00
f400
0e00
0900
0880
1040
1040
1000
2000
2000
ffc0
4000
4000
ENDCHAR
STARTCHAR questiondown
ENCODING 15
SWIDTH 797 0
DWIDTH 15 0
BBX 10 21 2 -6
BITMAP
0080
0080
0080
8100
8100
8200
4200
2200
1c00
07c0
1c00
2800
4800
9000
9000
1000
2000
2000
ffc0
4000
4000
ENDCHAR
STARTCHAR dotlessi
ENCODING 16
SWIDTH 797 0
DWIDTH 15 0
BBX 12 22 1 -8
BITMAP
0020
0020
0020
0040
0080
0700
7800
0700
0080
0040
0020
0020
0000
0100
0100
3a10
4610
8210
8620
85c0
0800
0800
ENDCHAR
STARTCHAR dotlessj
ENCODING 17
SWIDTH 797 0
DWIDTH 15 0
BBX 12 22 1 -8
BITMAP
4000
4000
4000
2000
1000
0e00
01e0
0e00
1000
2000
4000
4000
0000
0100
0100
3a10
4610
8210
8620
85c0
0800
0800
ENDCHAR
STARTCHAR grave
ENCODING 18
SWIDTH 797 0
DWIDTH 15 0
BBX 12 22 1 -8
BITMAP
0020
00c0
0300
0400
1800
6000
6000
1800
0400
0300
00c0
0020
0000
0100
0100
3a10
4610
8210
8620
85c0
0800
0800
ENDCHAR
STARTCHAR acute
ENCODING 19
SWIDTH 797 0
DWIDTH 15 0
BBX 12 22 1 -8
BITMAP
4000
3000
0c00
0200
0180
0060
0060
0180
0200
0c00
3000
4000
0000
0100
0100
3a10
4610
8210
8620
85c0
0800
0800
ENDCHAR
STARTCHAR caron
ENCODING 20
SWIDTH 797 0
DWIDTH 15 0
BBX 10 25 2 -8
BITMAP
0080
0080
0080
0140
0180
0300
0e00
3200
4200
c400
3400
0c00
0e00
0900
08c0
0800
1000
ffc0
1000
2000
2000
ffc0
4000
4000
4000
ENDCHAR
STARTCHAR breve
ENCODING 21
SWIDTH 797 0
DWIDTH 15 0
BBX 10 25 2 -8
BITMAP
0080
0080
0080
8100
6100
1100
0e00
0300
0280
04c0
0700
0400
1800
2800
c800
0800
1000
ffc0
1000
2000
2000
ffc0
4000
4000
4000
ENDCHAR
STARTCHAR macron
ENCODING 22
SWIDTH 797 0
DWIDTH 15 0
BBX 10 21 2 -7
BITMAP
0040
0040
0080
0080
0300
7c00
fc00
0300
0080
0080
0040
0040
0000
0100
ffc0
0400
0400
0800
ffc0
2000
2000
ENDCHAR
STARTCHAR ring
ENCODING 23
SWIDTH 797 0
DWIDTH 15 0
BBX 10 21 2 -7
BITMAP
8000
8000
4000
4000
3000
0f80
0fc0
3000
4000
4000
8000
8000
0000
0100
ffc0
0400
0400
0800
ffc0
2000
2000
ENDCHAR
STARTCHAR cedilla
ENCODING 24
SWIDTH 797 0
DWIDTH 15 0
BBX 12 22 1 -8
BITMAP
0020
0020
0040
0080
3f00
7f00
0080
0040
0020
0020
0000
0080
3910
4510
8220
83c0
0200
3c10
4410
8a20
89c0
1000
ENDCHAR
STARTCHAR germandbls
ENCODING 25
SWIDTH 797 0
DWIDTH 15 0
BBX 12 22 1 -8
BITMAP
4000
4000
2000
1000
0fc0
0fe0
1000
2000
4000
4000
0000
0080
3910
4510
8220
83c0
0200
3c10
4410
8a20
89c0
1000
ENDCHAR
STARTCHAR ae
ENCODING 26
SWIDTH 797 0
DWIDTH 15 0
BBX 12 23 1 -9
BITMAP
0020
00c0
0300
0c00
3000
6000
1800
0600
0180
0060
0080
0100
3910
4510
8220
83c0
0200
3c10
4410
8a20
89c0
0800
1000
ENDCHAR
STARTCHAR oe
ENCODING 27
SWIDTH 797 0
DWIDTH 15 0
BBX 12 23 1 -9
BITMAP
4000
3000
0c00
0300
00c0
0060
0180
0600
1800
6000
0080
0100
3910
4510
8220
83c0
0200
3c10
4410
8a20
89c0
0800
1000
ENDCHAR
STARTCHAR oslash
ENCODING 28
SWIDTH 797 0
DWIDTH 15 0
BBX 12 7 1 1
BITMAP
0080
3910
7e10
c630
87e0
89c0
1000
ENDCHAR
STARTCHAR AE
ENCODING 29
SWIDTH 797 0
DWIDTH 15 0
BBX 12 15 1 -3
BITMAP
0040
3050
4c90
82a0
81e0
0100
0200
0400
fff0
0800
0800
1000
fff0
2000
2000
ENDCHAR
STARTCHAR OE
ENCODING 30
SWIDTH 903 0
DWIDTH 17 0
BBX 16 17 0 -4
BITMAP
0001
0002
0004
0008
0010
0010
0020
0040
0080
0100
0200
0400
0800
1000
2000
4000
8000
ENDCHAR
STARTCHAR Oslash
ENCODING 31
SWIDTH 903 0
DWIDTH 17 0
BBX 16 17 0 -4
BITMAP
8000
4000
2000
1000
0800
0400
0200
0100
0080
0040
0020
0010
0010
0008
0004
0002
0001
ENDCHAR
STARTCHAR tilde
ENCODING 32
SWIDTH 797 0
DWIDTH 15 0
BBX 10 18 2 -6
BITMAP
1fc0
2000
4000
4000
8000
8000
8000
8000
4000
4100
2200
1fc0
0400
0400
0800
ffc0
1000
2000
ENDCHAR
STARTCHAR exclam
ENCODING 33
SWIDTH 797 0
DWIDTH 15 0
BBX 10 18 2 -6
BITMAP
fe00
0100
0080
0080
0040
0040
0040
0040
0080
0480
0500
fe00
1000
1000
2000
ffc0
4000
8000
ENDCHAR
STARTCHAR quotedblright
ENCODING 34
SWIDTH 797 0
DWIDTH 15 0
BBX 10 21 2 -6
BITMAP
0040
1fc0
2080
4100
4100
8100
8200
8200
8400
4400
4800
2800
1fc0
1000
1000
2000
ffc0
2000
4000
4000
ffc0
ENDCHAR
STARTCHAR numbersign
ENCODING 35
SWIDTH 797 0
DWIDTH 15 0
BBX 10 21 2 -6
BITMAP
0040
fe80
0180
0180
0180
0140
0240
0240
0440
0480
0880
0900
fe00
1000
1000
2000
ffc0
2000
4000
4000
ffc0
ENDCHAR
STARTCHAR dollar
ENCODING 36
SWIDTH 797 0
DWIDTH 15 0
BBX 10 24 2 -9
BITMAP
1fc0
2000
4000
4000
8000
8000
8000
8000
4000
4000
2000
1fc0
0000
0000
0080
0100
ffc0
0400
0400
0800
ffc0
2000
2000
4000
ENDCHAR
STARTCHAR percent
ENCODING 37
SWIDTH 797 0
DWIDTH 15 0
BBX 10 24 2 -9
BITMAP
fe00
0100
0080
0080
0040
0040
0040
0040
0080
0080
0100
fe00
0000
0000
0080
0100
ffc0
0400
0400
0800
ffc0
2000
2000
4000
ENDCHAR
STARTCHAR ampersand
ENCODING 38
SWIDTH 797 0
DWIDTH 15 0
BBX 10 22 2 -8
BITMAP
1fc0
2000
4000
4000
8000
8000
8000
8000
4000
4040
2080
1fc0
0100
0100
0200
ffc0
0400
0800
0800
ffc0
1000
2000
ENDCHAR
STARTCHAR quoteright
ENCODING 39
SWIDTH 797 0
DWIDTH 15 0
BBX 10 22 2 -8
BITMAP
fe00
0100
0080
0080
0040
0040
0040
0040
0080
0880
0900
fe00
1000
1000
1000
ffc0
2000
2000
4000
ffc0
8000
8000
ENDCHAR
STARTCHAR parenleft
ENCODING 40
SWIDTH 797 0
DWIDTH 15 0
BBX 10 18 2 -6
BITMAP
1fc0
2000
4000
4000
8000
8000
8000
8000
4000
4000
2000
1fc0
0000
0100
0200
ffc0
1000
2000
ENDCHAR
STARTCHAR parenright
ENCODING 41
SWIDTH 797 0
DWIDTH 15 0
BBX 10 18 2 -6
BITMAP
fe00
0100
0080
0080
0040
0040
0040
0040
0080
0080
0100
fe00
0000
0200
0400
ffc0
0800
1000
ENDCHAR
STARTCHAR asterisk
ENCODING 42
SWIDTH 797 0
DWIDTH 15 0
BBX 10 21 2 -6
BITMAP
0080
0080
0080
1fc0
2100
4200
4200
8200
8400
8400
8800
4800
4800
3000
1fc0
1000
2000
2000
ffc0
4000
4000
ENDCHAR
STARTCHAR plus
ENCODING 43
SWIDTH 797 0
DWIDTH 15 0
BBX 10 21 2 -6
BITMAP
0080
0080
0080
ff00
0100
0280
0280
0240
0440
0440
0840
0880
0880
1100
fe00
1000
2000
2000
ffc0
4000
4000
ENDCHAR
STARTCHAR comma
ENCODING 44
SWIDTH 478 0
DWIDTH 9 0
BBX 8 19 0 -5
BITMAP
42
42
42
42
42
43
42
46
4a
52
52
62
42
c2
42
42
42
42
42
ENDCHAR
STARTCHAR hyphen
ENCODING 45
SWIDTH 265 0
DWIDTH 5 0
BBX 4 19 0 -5
BITMAP
20
20
20
20
20
30
20
60
a0
20
20
20
20
20
20
20
20
20
20
ENDCHAR
STARTCHAR period
ENCODING 46
SWIDTH 212 0
DWIDTH 4 0
BBX 3 8 0 0
BITMAP
20
20
20
60
a0
a0
20
20
ENDCHAR
STARTCHAR slash
ENCODING 47
SWIDTH 371 0
DWIDTH 7 0
BBX 6 8 0 0
BITMAP
48
4c
48
78
48
c8
48
48
ENDCHAR
STARTCHAR 0
ENCODING 48
SWIDTH 584 0
DWIDTH 11 0
BBX 10 13 -1 0
BITMAP
2040
2080
2100
2100
2200
2400
3fc0
2800
3000
2000
6000
6000
a000
ENDCHAR
STARTCHAR 1
ENCODING 49
SWIDTH 690 0
DWIDTH 13 0
BBX 12 13 -1 0
BITMAP
2210
2220
2240
2280
2300
2200
27f0
2600
2a00
3200
2200
6200
a200
ENDCHAR
STARTCHAR 2
ENCODING 50
SWIDTH 584 0
DWIDTH 11 0
BBX 10 13 -1 0
BITMAP
2040
2080
2100
3fc0
2200
2400
2800
2800
3fc0
2000
6000
6000
a000
ENDCHAR
STARTCHAR 3
ENCODING 51
SWIDTH 690 0
DWIDTH 13 0
BBX 12 13 -1 0
BITMAP
2210
2220
2240
2280
23f0
2200
2600
2600
2bf0
3200
2200
6200
a200
ENDCHAR
STARTCHAR 4
ENCODING 52
SWIDTH 797 0
DWIDTH 15 0
BBX 10 21 2 -6
BITMAP
0080
0080
0100
8100
e100
9a00
8600
8300
84c0
84c0
8900
8e00
9800
b000
d000
1000
2000
2000
ffc0
4000
4000
ENDCHAR
STARTCHAR 5
ENCODING 53
SWIDTH 797 0
DWIDTH 15 0
BBX 9 21 3 -6
BITMAP
0100
0100
0200
0280
0380
0480
1c80
2480
c880
8880
7080
1080
1c80
2380
2080
2000
4000
4000
ff80
8000
8000
ENDCHAR
STARTCHAR 6
ENCODING 54
SWIDTH 797 0
DWIDTH 15 0
BBX 9 17 3 -4
BITMAP
0100
0100
0200
0280
0780
0480
1880
2880
d080
9080
7080
3080
2c80
4380
4080
8000
8000
ENDCHAR
STARTCHAR 7
ENCODING 55
SWIDTH 797 0
DWIDTH 15 0
BBX 10 17 2 -4
BITMAP
0080
0080
0100
8100
e200
9a00
8400
8700
88c0
88c0
8900
9600
9800
a000
e000
4000
4000
ENDCHAR
STARTCHAR 8
ENCODING 56
SWIDTH 1009 0
DWIDTH 19 0
BBX 16 7 1 1
BITMAP
1040
2040
4080
ffff
4100
2200
1200
ENDCHAR
STARTCHAR 9
ENCODING 57
SWIDTH 1009 0
DWIDTH 19 0
BBX 16 7 1 1
BITMAP
0048
0044
0082
ffff
0102
0204
0208
ENDCHAR
STARTCHAR colon
ENCODING 58
SWIDTH 1009 0
DWIDTH 19 0
BBX 15 11 2 -1
BITMAP
0420
0820
1040
3ffe
c040
c080
2080
1ffe
1900
0a00
0600
ENDCHAR
STARTCHAR semicolon
ENCODING 59
SWIDTH 1009 0
DWIDTH 19 0
BBX 15 11 1 -1
BITMAP
00c0
0120
0110
fff8
0206
0206
0408
fff0
0830
0820
0040
ENDCHAR
STARTCHAR less
ENCODING 60
SWIDTH 1009 0
DWIDTH 19 0
BBX 14 11 2 -1
BITMAP
08c0
10a0
3130
7ff8
c10c
8204
4208
3ff0
1220
1420
0c40
ENDCHAR
STARTCHAR equal
ENCODING 61
SWIDTH 1009 0
DWIDTH 19 0
BBX 16 7 1 1
BITMAP
1048
2044
4082
ffff
4102
2204
1208
ENDCHAR
STARTCHAR greater
ENCODING 62
SWIDTH 797 0
DWIDTH 15 0
BBX 12 11 1 -1
BITMAP
0600
2640
1080
0900
0600
fff0
0600
0900
1080
2640
0600
ENDCHAR
STARTCHAR question
ENCODING 63
SWIDTH 797 0
DWIDTH 15 0
BBX 12 11 1 0
BITMAP
0f10
30e0
4060
40a0
4120
4610
4820
5020
6020
70c0
8f00
ENDCHAR
STARTCHAR at
ENCODING 64
SWIDTH 531 0
DWIDTH 10 0
BBX 7 19 1 -3
BITMAP
08
08
08
fe
0a
0a
12
12
12
fe
12
12
12
22
22
fe
20
20
20
ENDCHAR
STARTCHAR A
ENCODING 65
SWIDTH 743 0
DWIDTH 14 0
BBX 13 13 0 0
BITMAP
0200
0600
0500
0500
0a80
0a80
1940
1140
1f40
30a0
20a0
2090
f1f8
ENDCHAR
STARTCHAR B
ENCODING 66
SWIDTH 690 0
DWIDTH 13 0
BBX 11 13 0 0
BITMAP
ff00
2ac0
2a40
2a40
2a80
2f00
2ac0
2940
2920
2920
2920
2940
ff80
ENDCHAR
STARTCHAR C
ENCODING 67
SWIDTH 743 0
DWIDTH 14 0
BBX 11 13 1 0
BITMAP
0f20
38e0
4860
5020
9000
9000
9000
9000
9000
5000
5020
38c0
0f00
ENDCHAR
STARTCHAR D
ENCODING 68
SWIDTH 637 0
DWIDTH 12 0
BBX 13 13 0 0
BITMAP
ff80
28e0
2890
2850
2848
2848
2848
2848
2848
2850
28b0
28c0
ff80
ENDCHAR
STARTCHAR E
ENCODING 69
SWIDTH 690 0
DWIDTH 13 0
BBX 12 13 0 0
BITMAP
ffe0
2460
2420
2500
2500
2700
2700
2500
2500
2410
2420
2460
ffe0
ENDCHAR
STARTCHAR F
ENCODING 70
SWIDTH 637 0
DWIDTH 12 0
BBX 11 13 0 0
BITMAP
ffe0
24e0
2460
2500
2500
2700
2700
2500
2500
2400
2400
2400
ff00
ENDCHAR
STARTCHAR G
ENCODING 71
SWIDTH 797 0
DWIDTH 15 0
BBX 14 13 1 0
BITMAP
0f90
3870
4830
5010
9000
9000
9000
9000
93fc
5090
4890
38b0
0fc0
ENDCHAR
STARTCHAR H
ENCODING 72
SWIDTH 850 0
DWIDTH 16 0
BBX 15 13 0 0
BITMAP
fefe
2828
2828
2828
2828
2fe8
2828
2828
2828
2828
2828
2828
fefe
ENDCHAR
STARTCHAR I
ENCODING 73
SWIDTH 371 0
DWIDTH 7 0
BBX 7 13 0 0
BITMAP
fe
28
28
28
28
28
28
28
28
28
28
28
fe
ENDCHAR
STARTCHAR J
ENCODING 74
SWIDTH 478 0
DWIDTH 9 0
BBX 9 14 0 -1
BITMAP
3f80
0a00
0a00
0a00
0a00
0a00
0a00
0a00
0a00
0a00
0a00
fa00
9a00
7c00
ENDCHAR
STARTCHAR K
ENCODING 75
SWIDTH 797 0
DWIDTH 15 0
BBX 15 13 0 0
BITMAP
fe7c
2830
2820
28c0
2980
2a80
2c40
2a20
2920
2910
2888
2848
fefe
ENDCHAR
STARTCHAR L
ENCODING 76
SWIDTH 690 0
DWIDTH 13 0
BBX 12 13 0 0
BITMAP
ff00
2400
2400
2400
2400
2400
2400
2400
2400
2410
2420
2460
ffe0
ENDCHAR
STARTCHAR M
ENCODING 77
SWIDTH 956 0
DWIDTH 18 0
BBX 19 13 -1 0
BITMAP
fc03e0
140680
120680
1a0e80
190e80
151a80
149a80
12b280
127280
116280
112280
10c280
7c4fe0
ENDCHAR
STARTCHAR N
ENCODING 78
SWIDTH 743 0
DWIDTH 14 0
BBX 12 13 0 0
BITMAP
7cf0
2a20
2520
2520
22a0
2260
2160
2120
20a0
20a0
2060
2060
f820
ENDCHAR
STARTCHAR O
ENCODING 79
SWIDTH 797 0
DWIDTH 15 0
BBX 13 13 1 0
BITMAP
0f80
38e0
4890
5050
9048
9048
9048
9048
9048
5050
4890
38e0
0f80
ENDCHAR
STARTCHAR P
ENCODING 80
SWIDTH 637 0
DWIDTH 12 0
BBX 11 13 0 0
BITMAP
ff80
2940
2920
2920
2920
2940
2f80
2800
2800
2800
2800
2800
fe00
ENDCHAR
STARTCHAR Q
ENCODING 81
SWIDTH 797 0
DWIDTH 15 0
BBX 13 16 1 -3
BITMAP
0f80
38e0
4890
5050
9048
9048
9048
9048
9048
5050
4890
38e0
0f80
0480
02c0
01f8
ENDCHAR
STARTCHAR R
ENCODING 82
SWIDTH 743 0
DWIDTH 14 0
BBX 13 13 0 0
BITMAP
ff80
2940
2920
2920
2920
2920
2fc0
2a80
2940
2940
28a0
2890
fe78
ENDCHAR
STARTCHAR S
ENCODING 83
SWIDTH 584 0
DWIDTH 11 0
BBX 8 13 1 0
BITMAP
7d
c3
c1
c1
b0
cc
32
09
05
83
83
c3
bc
ENDCHAR
STARTCHAR T
ENCODING 84
SWIDTH 690 0
DWIDTH 13 0
BBX 11 13 1 0
BITMAP
ffe0
eae0
8a20
8a20
0a00
0a00
0a00
0a00
0a00
0a00
0a00
0a00
3f80
ENDCHAR
STARTCHAR U
ENCODING 85
SWIDTH 743 0
DWIDTH 14 0
BBX 13 13 0 0
BITMAP
fff8
2420
2420
2420
2420
2420
2420
2420
2420
2420
2420
1440
0f80
ENDCHAR
STARTCHAR V
ENCODING 86
SWIDTH 743 0
DWIDTH 14 0
BBX 13 13 0 0
BITMAP
fc78
4830
2820
2820
1860
1440
1440
0a80
0a80
0500
0500
0300
0200
ENDCHAR
STARTCHAR W
ENCODING 87
SWIDTH 1009 0
DWIDTH 19 0
BBX 19 13 0 0
BITMAP
f9f9e0
5090c0
4850c0
285080
286880
18a900
14a900
151500
0d1600
0b0e00
0a0a00
060c00
040400
ENDCHAR
STARTCHAR X
ENCODING 88
SWIDTH 743 0
DWIDTH 14 0
BBX 14 13 0 0
BITMAP
fef8
4460
2440
1280
1300
0900
0480
0480
0a40
1220
1120
3090
fbfc
ENDCHAR
STARTCHAR Y
ENCODING 89
SWIDTH 743 0
DWIDTH 14 0
BBX 13 13 0 0
BITMAP
fcf8
2420
2420
1240
1140
0980
0900
0500
0500
0500
0500
0500
1fc0
ENDCHAR
STARTCHAR Z
ENCODING 90
SWIDTH 690 0
DWIDTH 13 0
BBX 10 13 1 0
BITMAP
ffc0
e480
8480
0900
0900
1200
1200
2400
2400
4840
4840
91c0
ffc0
ENDCHAR
STARTCHAR bracketleft
ENCODING 91
SWIDTH 1859 0
DWIDTH 35 0
BBX 34 5 0 10
BITMAP
0001e00000
003e1f0000
07c000f800
f8000007c0
8000000040
ENDCHAR
STARTCHAR leftdblquote
ENCODING 92
SWIDTH 2338 0
DWIDTH 44 0
BBX 43 5 0 10
BITMAP
00003f800000
000fe0fe0000
03f80003f800
fe0000000fe0
800000000020
ENDCHAR
STARTCHAR bracketright
ENCODING 93
SWIDTH 1859 0
DWIDTH 35 0
BBX 34 4 0 11
BITMAP
01fe0000c0
3fffe00fc0
fc01ffff00
c0001fe000
ENDCHAR
STARTCHAR circumflex
ENCODING 94
SWIDTH 2338 0
DWIDTH 44 0
BBX 43 5 0 12
BITMAP
003fe0000060
03fffc0003e0
3fc03f807f80
f80007fff800
c00000ff8000
ENDCHAR
STARTCHAR leftquote
ENCODING 96
SWIDTH 531 0
DWIDTH 10 0
BBX 7 13 1 0
BITMAP
02
02
02
02
02
02
3e
02
02
02
02
02
fe
ENDCHAR
STARTCHAR a
ENCODING 97
SWIDTH 637 0
DWIDTH 12 0
BBX 9 13 0 0
BITMAP
7c00
8200
0100
0100
0080
0080
e080
8080
8080
8100
8100
8200
7c00
ENDCHAR
STARTCHAR f
ENCODING 102
SWIDTH 690 0
DWIDTH 13 0
BBX 10 13 1 0
BITMAP
7380
7380
b340
a140
6180
6180
c0c0
c0c0
c0c0
c0c0
c0c0
6180
1e00
ENDCHAR
STARTCHAR g
ENCODING 103
SWIDTH 531 0
DWIDTH 10 0
BBX 7 14 1 0
BITMAP
02
e6
9a
a8
c4
02
3a
46
82
82
82
84
44
38
ENDCHAR
STARTCHAR h
ENCODING 104
SWIDTH 797 0
DWIDTH 15 0
BBX 12 8 1 1
BITMAP
fff0
0000
0000
0010
7810
8410
8220
81c0
ENDCHAR
STARTCHAR i
ENCODING 105
SWIDTH 637 0
DWIDTH 12 0
BBX 11 14 0 0
BITMAP
7f00
7fc0
1fc0
0040
0040
0040
0040
0040
0040
0040
0040
0040
7fe0
ffc0
ENDCHAR
STARTCHAR j
ENCODING 106
SWIDTH 425 0
DWIDTH 8 0
BBX 6 14 0 0
BITMAP
78
7c
18
08
0c
0c
0c
0c
0c
0c
0c
0c
7c
fc
ENDCHAR
STARTCHAR k
ENCODING 107
SWIDTH 637 0
DWIDTH 12 0
BBX 9 14 1 0
BITMAP
ff00
ff80
3f00
0100
0180
0180
0180
0180
0180
0180
0180
0180
0180
0080
ENDCHAR
STARTCHAR l
ENCODING 108
SWIDTH 797 0
DWIDTH 15 0
BBX 10 11 2 -1
BITMAP
00c0
0300
0400
1800
6000
8300
6000
1800
0400
0300
00c0
ENDCHAR
STARTCHAR m
ENCODING 109
SWIDTH 797 0
DWIDTH 15 0
BBX 10 11 2 -1
BITMAP
c000
3000
0800
0600
0180
3040
0180
0600
0800
3000
c000
ENDCHAR
STARTCHAR n
ENCODING 110
SWIDTH 797 0
DWIDTH 15 0
BBX 8 9 3 0
BITMAP
81
c2
a4
98
90
98
a4
c2
81
ENDCHAR
STARTCHAR o
ENCODING 111
SWIDTH 797 0
DWIDTH 15 0
BBX 8 9 3 0
BITMAP
81
43
25
19
11
19
25
43
81
ENDCHAR
STARTCHAR p
ENCODING 112
SWIDTH 212 0
DWIDTH 4 0
BBX 1 8 2 0
BITMAP
80
80
80
80
80
80
80
80
ENDCHAR
STARTCHAR q
ENCODING 113
SWIDTH 371 0
DWIDTH 7 0
BBX 4 8 1 0
BITMAP
90
90
90
90
90
90
90
90
ENDCHAR
STARTCHAR r
ENCODING 114
SWIDTH 797 0
DWIDTH 15 0
BBX 10 8 2 0
BITMAP
8000
4000
3000
0800
0400
0300
0080
0040
ENDCHAR
STARTCHAR s
ENCODING 115
SWIDTH 797 0
DWIDTH 15 0
BBX 12 5 1 2
BITMAP
3810
7c10
c630
83e0
81c0
ENDCHAR
STARTCHAR t
ENCODING 116
SWIDTH 797 0
DWIDTH 15 0
BBX 12 9 1 0
BITMAP
7810
7e10
87e0
81e0
0000
7810
7e10
87e0
81e0
ENDCHAR
STARTCHAR u
ENCODING 117
SWIDTH 797 0
DWIDTH 15 0
BBX 12 13 1 -2
BITMAP
3810
4410
8220
81c0
0000
3810
4410
8220
81c0
0000
0000
0000
fff0
ENDCHAR
STARTCHAR v
ENCODING 118
SWIDTH 797 0
DWIDTH 15 0
BBX 12 21 1 -7
BITMAP
4000
4000
2000
1000
0fc0
0fe0
1000
2000
4000
4000
0000
0000
3810
4410
8220
81c0
0000
3810
4410
8220
81c0
ENDCHAR
STARTCHAR w
ENCODING 119
SWIDTH 797 0
DWIDTH 15 0
BBX 12 21 1 -7
BITMAP
0020
0020
0040
0080
3f00
7f00
0080
0040
0020
0020
0000
0000
3810
4410
8220
81c0
0000
3810
4410
8220
81c0
ENDCHAR
STARTCHAR x
ENCODING 120
SWIDTH 1009 0
DWIDTH 19 0
BBX 16 8 1 0
BITMAP
03f8
0c04
0802
1002
2001
ec01
3001
2001
ENDCHAR
STARTCHAR y
ENCODING 121
SWIDTH 1009 0
DWIDTH 19 0
BBX 17 8 1 0
BITMAP
0fe000
301000
400800
400400
800200
801b80
800600
800200
ENDCHAR
STARTCHAR z
ENCODING 122
SWIDTH 797 0
DWIDTH 15 0
BBX 12 13 1 -2
BITMAP
1ff0
1c00
1c00
3800
3800
3800
3f00
7000
7000
7000
7000
e000
e000
ENDCHAR
STARTCHAR endash
ENCODING 123
SWIDTH 637 0
DWIDTH 12 0
BBX 9 8 2 0
BITMAP
0080
0380
0600
0c00
1800
3000
e000
8000
ENDCHAR
STARTCHAR emdash
ENCODING 124
SWIDTH 584 0
DWIDTH 11 0
BBX 10 13 0 0
BITMAP
f800
4800
4800
4800
4bc0
4900
4a00
4d00
4900
4d00
4d00
4c80
ff80
ENDCHAR
STARTCHAR quotedbl
ENCODING 125
SWIDTH 531 0
DWIDTH 10 0
BBX 8 13 1 0
BITMAP
30
13
1c
60
20
3c
24
64
44
44
49
8a
86
ENDCHAR
STARTCHAR hungarumlaut
ENCODING 126
SWIDTH 531 0
DWIDTH 10 0
BBX 8 13 1 0
BITMAP
30
10
7e
20
20
3c
24
64
44
44
49
8a
86
ENDCHAR
STARTCHAR dieresis
ENCODING 127
SWIDTH 425 0
DWIDTH 8 0
BBX 5 8 2 0
BITMAP
70
08
08
08
f8
10
10
e0
ENDCHAR
ENDFONT
